<svg width="32" height="32" viewBox="0 0 32 32" fill="none" xmlns="http://www.w3.org/2000/svg">
<path d="M17.9583 13.1667H2.54167C1.69375 13.1667 1 13.8604 1 14.7083C1 15.5562 1.69375 16.25 2.54167 16.25H17.9583C18.8063 16.25 19.5 15.5562 19.5 14.7083C19.5 13.8604 18.8063 13.1667 17.9583 13.1667ZM17.9583 7H2.54167C1.69375 7 1 7.69375 1 8.54167C1 9.38958 1.69375 10.0833 2.54167 10.0833H17.9583C18.8063 10.0833 19.5 9.38958 19.5 8.54167C19.5 7.69375 18.8063 7 17.9583 7ZM25.6667 19.3333V14.7083C25.6667 13.8604 24.9729 13.1667 24.125 13.1667C23.2771 13.1667 22.5833 13.8604 22.5833 14.7083V19.3333H17.9583C17.1104 19.3333 16.4167 20.0271 16.4167 20.875C16.4167 21.7229 17.1104 22.4167 17.9583 22.4167H22.5833V27.0417C22.5833 27.8896 23.2771 28.5833 24.125 28.5833C24.9729 28.5833 25.6667 27.8896 25.6667 27.0417V22.4167H30.2917C31.1396 22.4167 31.8333 21.7229 31.8333 20.875C31.8333 20.0271 31.1396 19.3333 30.2917 19.3333H25.6667ZM2.54167 22.4167H11.7917C12.6396 22.4167 13.3333 21.7229 13.3333 20.875C13.3333 20.0271 12.6396 19.3333 11.7917 19.3333H2.54167C1.69375 19.3333 1 20.0271 1 20.875C1 21.7229 1.69375 22.4167 2.54167 22.4167Z" fill="#C7C5D0"/>
</svg>
