<svg width="32" height="32" viewBox="0 0 32 32" fill="none" xmlns="http://www.w3.org/2000/svg">
<g filter="url(#filter0_di)">
<path d="M10.0024 8.75484C10.0024 9.60287 10.5948 10.3178 11.1791 10.9325C11.2781 11.0367 11.3699 11.1483 11.4536 11.2666C11.8123 11.7735 12.0049 12.3791 12.0049 13C12.0049 13.6209 11.8123 14.2265 11.4536 14.7334C11.3699 14.8517 11.2781 14.9633 11.1791 15.0675C10.5948 15.6822 10.0024 16.3971 10.0024 17.2452L10.0024 25C10.0024 25.5523 9.55471 26 9.00243 26V26C8.45014 26 8.00243 25.5523 8.00243 25L8.00243 17.2452C8.00243 16.3971 7.41003 15.6822 6.82579 15.0675C6.72677 14.9633 6.63495 14.8517 6.55122 14.7334C6.19257 14.2265 5.99998 13.6209 5.99998 13C5.99998 12.3791 6.19257 11.7735 6.55122 11.2666C6.63495 11.1483 6.72677 11.0367 6.82579 10.9325C7.41003 10.3178 8.00243 9.60287 8.00243 8.75484L8.00243 7C8.00243 6.44772 8.45014 6 9.00243 6V6C9.55471 6 10.0024 6.44771 10.0024 7L10.0024 8.75484ZM17.0024 14.7548C17.0024 15.6029 17.5948 16.3178 18.1791 16.9325C18.2781 17.0367 18.3699 17.1483 18.4536 17.2666C18.8123 17.7735 19.0049 18.3791 19.0049 19C19.0049 19.6209 18.8123 20.2265 18.4536 20.7334C18.3699 20.8517 18.2781 20.9633 18.1791 21.0675C17.5948 21.6822 17.0024 22.3971 17.0024 23.2452L17.0024 25C17.0024 25.5523 16.5547 26 16.0024 26V26C15.4501 26 15.0024 25.5523 15.0024 25L15.0024 23.2452C15.0024 22.3971 14.41 21.6822 13.8258 21.0675C13.7268 20.9633 13.6349 20.8517 13.5512 20.7334C13.1926 20.2265 13 19.6209 13 19C13 18.3791 13.1926 17.7735 13.5512 17.2666C13.6349 17.1483 13.7268 17.0367 13.8258 16.9325C14.41 16.3178 15.0024 15.6029 15.0024 14.7548L15.0024 7C15.0024 6.44771 15.4501 6 16.0024 6V6C16.5547 6 17.0024 6.44771 17.0024 7L17.0024 14.7548ZM24.0024 8.75484C24.0024 9.60287 24.5948 10.3178 25.1791 10.9325C25.2781 11.0367 25.3699 11.1483 25.4536 11.2666C25.8123 11.7735 26.0049 12.3791 26.0049 13C26.0049 13.6209 25.8123 14.2265 25.4536 14.7334C25.3699 14.8517 25.2781 14.9633 25.1791 15.0675C24.5948 15.6822 24.0024 16.3971 24.0024 17.2452L24.0024 25C24.0024 25.5523 23.5547 26 23.0024 26V26C22.4501 26 22.0024 25.5523 22.0024 25L22.0024 17.2452C22.0024 16.3971 21.41 15.6822 20.8258 15.0675C20.7268 14.9633 20.635 14.8517 20.5512 14.7334C20.1926 14.2265 20 13.6209 20 13C20 12.3791 20.1926 11.7735 20.5512 11.2666C20.635 11.1483 20.7268 11.0367 20.8258 10.9325C21.41 10.3178 22.0024 9.60287 22.0024 8.75484L22.0024 7C22.0024 6.44772 22.4501 6 23.0024 6V6C23.5547 6 24.0024 6.44772 24.0024 7L24.0024 8.75484Z" fill="#C7C5D0"/>
</g>
<defs>
<filter id="filter0_di" x="6" y="6" width="22.0049" height="22" filterUnits="userSpaceOnUse" color-interpolation-filters="sRGB">
<feFlood flood-opacity="0" result="BackgroundImageFix"/>
<feColorMatrix in="SourceAlpha" type="matrix" values="0 0 0 0 0 0 0 0 0 0 0 0 0 0 0 0 0 0 127 0"/>
<feOffset dx="1" dy="1"/>
<feGaussianBlur stdDeviation="0.5"/>
<feColorMatrix type="matrix" values="0 0 0 0 1 0 0 0 0 1 0 0 0 0 1 0 0 0 1 0"/>
<feBlend mode="normal" in2="BackgroundImageFix" result="effect1_dropShadow"/>
<feBlend mode="normal" in="SourceGraphic" in2="effect1_dropShadow" result="shape"/>
<feColorMatrix in="SourceAlpha" type="matrix" values="0 0 0 0 0 0 0 0 0 0 0 0 0 0 0 0 0 0 127 0" result="hardAlpha"/>
<feOffset dx="1" dy="1"/>
<feGaussianBlur stdDeviation="0.5"/>
<feComposite in2="hardAlpha" operator="arithmetic" k2="-1" k3="1"/>
<feColorMatrix type="matrix" values="0 0 0 0 0 0 0 0 0 0 0 0 0 0 0 0 0 0 0.1 0"/>
<feBlend mode="normal" in2="shape" result="effect2_innerShadow"/>
</filter>
</defs>
</svg>
