<svg width="32" height="32" viewBox="0 0 32 32" fill="none" xmlns="http://www.w3.org/2000/svg">
<path fill-rule="evenodd" clip-rule="evenodd" d="M16.4445 12.0127C15.4416 12.0123 14.5051 11.5106 13.9491 10.6759C12.4986 8.49839 10.5825 8.19229 9.04802 8.73024C7.39515 9.3097 6 10.9358 6 13.2453C6 13.604 6.26884 14.4998 7.35632 15.9689C8.36686 17.334 9.78628 18.8005 11.3354 20.2216C12.8699 21.6293 14.4521 22.9208 15.743 23.9458C15.9839 24.1371 16.2059 24.3123 16.414 24.476C16.6016 24.3219 16.7993 24.1589 17.0071 23.9865C18.2385 22.9648 19.7447 21.6758 21.2033 20.2713C22.6755 18.8537 24.0236 17.39 24.9834 16.0268C26.0097 14.569 26.2857 13.6517 26.2857 13.2453C26.2857 10.8459 24.9269 9.26791 23.487 8.73037C22.2089 8.25321 20.4386 8.43429 18.9412 10.678C18.3844 11.5123 17.4475 12.0131 16.4445 12.0127ZM16.4458 28.3571C16.2536 28.1645 15.7235 27.7482 14.9784 27.1633C11.4285 24.376 3 17.7583 3 13.2453C3 6.99483 9.64997 3.43038 14.3415 6.79266C15.1077 7.34177 15.8216 8.07562 16.4458 9.01269C17.077 8.06698 17.787 7.32936 18.541 6.78037C23.1083 3.45452 29.2857 7.05156 29.2857 13.2453C29.2857 17.8308 21.0167 24.5894 17.7068 27.2947C17.0755 27.8107 16.6246 28.1793 16.4458 28.3571Z" fill="#C7C5D0"/>
</svg>
