<svg width="32" height="32" viewBox="0 0 32 32" fill="none" xmlns="http://www.w3.org/2000/svg">
<path d="M1.56006 5.46341C1.56006 2.44605 4.00611 0 7.02347 0V0C10.0408 0 12.4869 2.44605 12.4869 5.46341V26.5366C12.4869 29.5539 10.0408 32 7.02347 32V32C4.00611 32 1.56006 29.5539 1.56006 26.5366V5.46341Z" fill="white"/>
<path d="M19.5112 5.46341C19.5112 2.44605 21.9573 0 24.9746 0V0C27.992 0 30.4381 2.44605 30.4381 5.46341V26.5366C30.4381 29.5539 27.992 32 24.9746 32V32C21.9573 32 19.5112 29.5539 19.5112 26.5366V5.46341Z" fill="white"/>
</svg>
