<svg width="32" height="32" viewBox="0 0 32 32" fill="none" xmlns="http://www.w3.org/2000/svg">
<g filter="url(#filter0_di)">
<path d="M23.4555 16.06C23.4555 16.12 23.4555 16.18 23.4555 16.3C23.4555 17.92 22.1111 19.24 20.5222 19.24H13.3111V16.96L6.22217 20.92L13.3111 25V22.72H20.4611C21.3166 22.72 22.1722 22.54 22.9666 22.24C23.7611 21.94 24.4944 21.46 25.0444 20.86C26.2666 19.66 26.9388 18.04 26.9388 16.3C26.9388 15.58 26.8166 14.92 26.5722 14.26L23.4555 16.06Z" fill="#C7C5D0"/>
<path d="M8.54444 15.7C8.54444 14.08 9.88889 12.76 11.4778 12.76H18.6889V15.04L25.7778 11.08L18.6889 7V9.28H11.4778C10.6222 9.28 9.76667 9.46 8.97222 9.76C8.23889 10.12 7.50556 10.6 6.89444 11.2C5.67222 12.4 5 14.02 5 15.7C5 16.42 5.12222 17.08 5.36667 17.8L8.60556 15.94C8.54444 15.88 8.54444 15.82 8.54444 15.7Z" fill="#C7C5D0"/>
</g>
<circle cx="16" cy="30" r="2" fill="url(#paint0_linear)"/>
<defs>
<filter id="filter0_di" x="5" y="7" width="23.9388" height="20" filterUnits="userSpaceOnUse" color-interpolation-filters="sRGB">
<feFlood flood-opacity="0" result="BackgroundImageFix"/>
<feColorMatrix in="SourceAlpha" type="matrix" values="0 0 0 0 0 0 0 0 0 0 0 0 0 0 0 0 0 0 127 0"/>
<feOffset dx="1" dy="1"/>
<feGaussianBlur stdDeviation="0.5"/>
<feColorMatrix type="matrix" values="0 0 0 0 1 0 0 0 0 1 0 0 0 0 1 0 0 0 1 0"/>
<feBlend mode="normal" in2="BackgroundImageFix" result="effect1_dropShadow"/>
<feBlend mode="normal" in="SourceGraphic" in2="effect1_dropShadow" result="shape"/>
<feColorMatrix in="SourceAlpha" type="matrix" values="0 0 0 0 0 0 0 0 0 0 0 0 0 0 0 0 0 0 127 0" result="hardAlpha"/>
<feOffset dx="1" dy="1"/>
<feGaussianBlur stdDeviation="0.5"/>
<feComposite in2="hardAlpha" operator="arithmetic" k2="-1" k3="1"/>
<feColorMatrix type="matrix" values="0 0 0 0 0 0 0 0 0 0 0 0 0 0 0 0 0 0 0.1 0"/>
<feBlend mode="normal" in2="shape" result="effect2_innerShadow"/>
</filter>
<linearGradient id="paint0_linear" x1="16.9136" y1="31.4321" x2="15.0617" y2="28.5185" gradientUnits="userSpaceOnUse">
<stop stop-color="#5F30C1"/>
<stop offset="1" stop-color="#968EF1"/>
</linearGradient>
</defs>
</svg>
