<svg width="32" height="32" viewBox="0 0 32 32" fill="none" xmlns="http://www.w3.org/2000/svg">
<path d="M22 18C23.992 18 25.6 19.608 25.6 21.6C25.6 23.592 23.992 25.2 22 25.2C20.008 25.2 18.4 23.592 18.4 21.6C18.4 21.312 18.436 21.048 18.508 20.772L13.252 18.012C12.592 18.744 11.656 19.2 10.6 19.2C8.608 19.2 7 17.592 7 15.6C7 13.608 8.608 12 10.6 12C11.656 12 12.592 12.468 13.252 13.188L18.508 10.428C18.436 10.152 18.4 9.888 18.4 9.6C18.4 7.608 20.008 6 22 6C23.992 6 25.6 7.608 25.6 9.6C25.6 11.592 23.992 13.2 22 13.2C20.944 13.2 20.008 12.732 19.348 12.012L14.092 14.772C14.2373 15.3144 14.2373 15.8856 14.092 16.428L19.348 19.188C20.008 18.456 20.944 18 22 18V18Z" fill="#C7C5D0"/>
</svg>
